<svg width="100" height="110" viewBox="0 0 100 110" fill="none" xmlns="http://www.w3.org/2000/svg">
<g clip-path="url(#clip0_1_15)">
<path d="M82.9315 109.569C80.1194 109.048 77.3136 108.481 74.4938 108.014C60.8912 105.765 47.2874 103.538 33.681 101.309C23.0698 99.5709 12.4573 97.8442 1.84608 96.1098C1.59264 96.0688 1.34816 95.9843 0.985916 95.8922C4.0656 77.1082 7.13504 58.383 10.1917 39.7309C10.5066 39.6656 10.6115 39.6106 10.705 39.6285C13.0589 40.0458 15.8966 39.8141 17.6246 41.0851C19.2912 42.3139 19.8237 45.0941 20.8272 47.2048C21.9472 49.5587 23.0621 51.9178 24.1334 54.296C24.5571 55.2381 25.0704 55.7782 26.2224 55.896C28.479 56.1251 30.7126 56.5987 33.2893 57.025C30.9123 52.0291 28.6621 47.2982 26.2557 42.2384C28.264 42.5341 29.9984 42.9629 31.7418 43.0102C34.5539 43.0858 36.0298 44.4426 37.032 47.0243C38.3952 50.5405 40.1923 53.8877 41.7706 57.3206C42.1558 58.1616 42.6282 58.6275 43.6419 58.7466C45.9472 59.0141 48.2333 59.4698 50.8547 59.9037C48.4726 54.8963 46.2186 50.1654 43.816 45.1158C45.7552 45.4026 47.4346 45.7955 49.1306 45.871C51.9107 45.9952 53.5786 47.1357 54.5949 49.8813C55.9005 53.4141 57.7526 56.7421 59.3232 60.1776C59.7405 61.0902 60.2742 61.5229 61.3354 61.6406C63.5946 61.8902 65.8294 62.351 68.4176 62.7811C66.033 57.7635 63.7853 53.0352 61.3622 47.9408C64.5021 48.4618 67.3526 48.8957 70.1789 49.4538C70.5475 49.5267 70.8624 50.2026 71.0774 50.6582C73.0422 54.7926 74.9981 58.9322 76.9142 63.0896C77.3059 63.9395 77.7782 64.3914 78.783 64.5078C81.0947 64.7779 83.3834 65.2246 85.9818 65.6483C83.5933 60.6307 81.3418 55.8973 78.9405 50.849C81.5606 51.2534 83.8966 51.6157 86.2326 51.9766C86.28 51.8883 86.3261 51.8 86.3734 51.713C84.3818 50.4957 82.3914 49.2797 80.1475 47.9088C81.841 47.137 83.3155 46.4662 84.7888 45.7942C87.7917 44.4234 90.815 43.0947 93.7859 41.6586C94.7638 41.185 95.5165 41.1965 96.4099 41.8083C97.4122 42.4957 98.5168 43.0294 99.5779 43.631C99.5779 43.7373 99.5779 43.8448 99.5779 43.951C97.4198 47.4851 95.2528 51.0141 93.1152 54.5622C92.9078 54.9066 92.8618 55.3622 92.7952 55.7744C90.888 67.311 88.991 78.849 87.0864 90.3856C86.0304 96.7818 84.959 103.179 83.8928 109.574C83.5728 109.569 83.2528 109.569 82.9315 109.569ZM84.6813 70.7197C60.5469 66.7658 36.6416 62.849 12.6621 58.9206C12.383 60.6819 12.1437 62.1834 11.8826 63.8243C35.9222 67.7629 59.839 71.6835 83.8659 75.6208C84.1386 73.9798 84.3894 72.4746 84.6813 70.7197ZM79.3206 103.227C79.5715 101.868 79.7482 100.715 80.0067 99.5798C80.2218 98.6326 79.8902 98.2448 78.9443 98.095C72.9002 97.1376 66.8611 96.1418 60.8208 95.1523C47.4269 92.9622 34.033 90.7696 20.639 88.5782C16.5072 87.9024 12.3728 87.2291 8.14112 86.5379C7.8736 88.2275 7.62784 89.7763 7.36544 91.4339C31.409 95.3763 55.2925 99.2893 79.3206 103.227Z" fill="#041218"/>
<path d="M20.5046 12.0726C22.8419 8.18912 25.137 4.376 27.5139 0.4272C32.328 3.31744 37.0499 6.15264 42.0291 9.14272C41.169 9.55104 40.5405 9.85824 39.903 10.1501C36.0349 11.9216 32.1539 13.6701 28.3024 15.4736C27.4525 15.873 26.7818 15.9254 25.951 15.3802C24.2218 14.2435 22.4144 13.2221 20.5046 12.0726Z" fill="#041218"/>
<path d="M64.881 38.7299C69.7923 36.4899 74.3888 34.3805 79.0019 32.3107C79.391 32.1341 80.008 32.0266 80.3331 32.2109C82.7715 33.6061 85.1651 35.0858 87.8121 36.6819C83.5753 38.6224 79.5216 40.3312 75.6163 42.328C73.5709 43.3738 71.9632 43.3802 70.1277 41.9645C68.5853 40.7779 66.8061 39.8986 64.881 38.7299Z" fill="#041218"/>
<path d="M57.3226 18.3395C52.3011 20.6282 47.6291 22.7747 42.9328 24.8675C42.5782 25.025 41.9754 24.9392 41.6195 24.7344C39.272 23.3814 36.9629 21.9658 34.3798 20.4131C36.305 19.5274 38.0061 18.7427 39.7085 17.9606C42.6077 16.6307 45.5005 15.2854 48.4189 13.999C48.8426 13.8122 49.5056 13.7008 49.8614 13.9018C52.2653 15.2624 54.6166 16.7139 57.3226 18.3395Z" fill="#041218"/>
<path d="M72.5699 27.5107C68.8259 29.2208 65.1523 30.5558 61.841 32.5078C58.6794 34.3715 56.1206 34.1488 53.4134 31.8934C52.3715 31.0256 51.0838 30.4547 49.6835 29.6138C50.4554 29.2246 50.9942 28.9315 51.551 28.6768C55.4691 26.8861 59.4051 25.1325 63.3014 23.297C64.2141 22.8682 64.8938 22.8195 65.7834 23.3994C67.9184 24.792 70.1405 26.0515 72.5699 27.5107Z" fill="#041218"/>
</g>
<defs>
<clipPath id="clip0_1_15">
<rect width="100" height="110" fill="white"/>
</clipPath>
</defs>
</svg>
