<svg width="26" height="26" viewBox="0 0 26 26" fill="none" xmlns="http://www.w3.org/2000/svg">
<path d="M13 2.20999C7.04166 2.20999 2.16666 7.07416 2.16666 13.065C2.16666 18.4817 6.13166 22.9775 11.31 23.79V16.2067H8.55832V13.065H11.31V10.6708C11.31 7.95166 12.9242 6.45666 15.405 6.45666C16.5858 6.45666 17.8208 6.66249 17.8208 6.66249V9.33833H16.4558C15.1125 9.33833 14.69 10.1725 14.69 11.0283V13.065H17.7017L17.2142 16.2067H14.69V23.79C17.2428 23.3868 19.5674 22.0843 21.2441 20.1176C22.9208 18.1508 23.8391 15.6494 23.8333 13.065C23.8333 7.07416 18.9583 2.20999 13 2.20999Z" fill="#041218"/>
</svg>
