<svg width="358" height="129" viewBox="0 0 358 129" fill="none" xmlns="http://www.w3.org/2000/svg">
<path d="M85.509 94.632C83.312 94.225 81.12 93.782 78.917 93.417C68.29 91.66 57.662 89.92 47.032 88.179C38.742 86.821 30.451 85.472 22.161 84.117C21.963 84.085 21.772 84.019 21.489 83.947C23.895 69.272 26.293 54.643 28.681 40.071C28.927 40.02 29.009 39.977 29.082 39.991C30.921 40.317 33.138 40.136 34.488 41.129C35.79 42.089 36.206 44.261 36.99 45.91C37.865 47.749 38.736 49.592 39.573 51.45C39.904 52.186 40.305 52.608 41.205 52.7C42.968 52.879 44.713 53.249 46.726 53.582C44.869 49.679 43.111 45.983 41.231 42.03C42.8 42.261 44.155 42.596 45.517 42.633C47.714 42.692 48.867 43.752 49.65 45.769C50.715 48.516 52.119 51.131 53.352 53.813C53.653 54.47 54.022 54.834 54.814 54.927C56.615 55.136 58.401 55.492 60.449 55.831C58.588 51.919 56.827 48.223 54.95 44.278C56.465 44.502 57.777 44.809 59.102 44.868C61.274 44.965 62.577 45.856 63.371 48.001C64.391 50.761 65.838 53.361 67.065 56.045C67.391 56.758 67.808 57.096 68.637 57.188C70.402 57.383 72.148 57.743 74.17 58.079C72.307 54.159 70.551 50.465 68.658 46.485C71.111 46.892 73.338 47.231 75.546 47.667C75.834 47.724 76.08 48.252 76.248 48.608C77.783 51.838 79.311 55.072 80.808 58.32C81.114 58.984 81.483 59.337 82.268 59.428C84.074 59.639 85.862 59.988 87.892 60.319C86.026 56.399 84.267 52.701 82.391 48.757C84.438 49.073 86.263 49.356 88.088 49.638C88.125 49.569 88.161 49.5 88.198 49.432C86.642 48.481 85.087 47.531 83.334 46.46C84.657 45.857 85.809 45.333 86.96 44.808C89.306 43.737 91.668 42.699 93.989 41.577C94.753 41.207 95.341 41.216 96.039 41.694C96.822 42.231 97.685 42.648 98.514 43.118C98.514 43.201 98.514 43.285 98.514 43.368C96.828 46.129 95.135 48.886 93.465 51.658C93.303 51.927 93.267 52.283 93.215 52.605C91.725 61.618 90.243 70.632 88.755 79.645C87.93 84.642 87.093 89.64 86.26 94.636C86.01 94.632 85.76 94.632 85.509 94.632ZM86.876 64.281C68.021 61.192 49.345 58.132 30.611 55.063C30.393 56.439 30.206 57.612 30.002 58.894C48.783 61.971 67.468 65.034 86.239 68.11C86.452 66.828 86.648 65.652 86.876 64.281ZM82.688 89.677C82.884 88.616 83.022 87.715 83.224 86.828C83.392 86.088 83.133 85.785 82.394 85.668C77.672 84.92 72.954 84.142 68.235 83.369C57.771 81.658 47.307 79.945 36.843 78.233C33.615 77.705 30.385 77.179 27.079 76.639C26.87 77.959 26.678 79.169 26.473 80.464C45.257 83.544 63.916 86.601 82.688 89.677Z" fill="#EFEFEF"/>
<path d="M36.738 18.463C38.564 15.429 40.357 12.45 42.214 9.365C45.975 11.623 49.664 13.838 53.554 16.174C52.882 16.493 52.391 16.733 51.893 16.961C48.871 18.345 45.839 19.711 42.83 21.12C42.166 21.432 41.642 21.473 40.993 21.047C39.642 20.159 38.23 19.361 36.738 18.463Z" fill="#EFEFEF"/>
<path d="M71.407 39.289C75.244 37.539 78.835 35.891 82.439 34.274C82.743 34.136 83.225 34.052 83.479 34.196C85.384 35.286 87.254 36.442 89.322 37.689C86.012 39.205 82.845 40.54 79.794 42.1C78.196 42.917 76.94 42.922 75.506 41.816C74.301 40.889 72.911 40.202 71.407 39.289Z" fill="#EFEFEF"/>
<path d="M65.502 23.359C61.579 25.147 57.929 26.824 54.26 28.459C53.983 28.582 53.512 28.515 53.234 28.355C51.4 27.298 49.596 26.192 47.578 24.979C49.082 24.287 50.411 23.674 51.741 23.063C54.006 22.024 56.266 20.973 58.546 19.968C58.877 19.822 59.395 19.735 59.673 19.892C61.551 20.955 63.388 22.089 65.502 23.359Z" fill="#EFEFEF"/>
<path d="M77.414 30.524C74.489 31.86 71.619 32.903 69.032 34.428C66.562 35.884 64.563 35.71 62.448 33.948C61.634 33.27 60.628 32.824 59.534 32.167C60.137 31.863 60.558 31.634 60.993 31.435C64.054 30.036 67.129 28.666 70.173 27.232C70.886 26.897 71.417 26.859 72.112 27.312C73.78 28.4 75.516 29.384 77.414 30.524Z" fill="#EFEFEF"/>
<path d="M115.4 65C115.4 62.2533 116.013 59.8 117.24 57.64C118.493 55.4533 120.187 53.76 122.32 52.56C124.48 51.3333 126.893 50.72 129.56 50.72C132.68 50.72 135.413 51.52 137.76 53.12C140.107 54.72 141.747 56.9333 142.68 59.76H136.24C135.6 58.4267 134.693 57.4267 133.52 56.76C132.373 56.0933 131.04 55.76 129.52 55.76C127.893 55.76 126.44 56.1467 125.16 56.92C123.907 57.6667 122.92 58.7333 122.2 60.12C121.507 61.5067 121.16 63.1333 121.16 65C121.16 66.84 121.507 68.4667 122.2 69.88C122.92 71.2667 123.907 72.3467 125.16 73.12C126.44 73.8667 127.893 74.24 129.52 74.24C131.04 74.24 132.373 73.9067 133.52 73.24C134.693 72.5467 135.6 71.5333 136.24 70.2H142.68C141.747 73.0533 140.107 75.28 137.76 76.88C135.44 78.4533 132.707 79.24 129.56 79.24C126.893 79.24 124.48 78.64 122.32 77.44C120.187 76.2133 118.493 74.52 117.24 72.36C116.013 70.2 115.4 67.7467 115.4 65ZM153.063 51.08V79H147.463V51.08H153.063ZM182.476 79H176.876L164.196 59.84V79H158.596V51.04H164.196L176.876 70.24V51.04H182.476V79ZM193.61 55.6V62.6H203.01V67.04H193.61V74.44H204.21V79H188.01V51.04H204.21V55.6H193.61Z" fill="#EFEFEF"/>
<path d="M225.24 51.12V54.08H217.64V79H214V54.08H206.36V51.12H225.24ZM244.401 79L237.761 67.6H233.361V79H229.721V51.12H238.721C240.827 51.12 242.601 51.48 244.041 52.2C245.507 52.92 246.601 53.8933 247.321 55.12C248.041 56.3467 248.401 57.7467 248.401 59.32C248.401 61.24 247.841 62.9333 246.721 64.4C245.627 65.8667 243.974 66.84 241.761 67.32L248.761 79H244.401ZM233.361 64.68H238.721C240.694 64.68 242.174 64.2 243.161 63.24C244.147 62.2533 244.641 60.9467 244.641 59.32C244.641 57.6667 244.147 56.3867 243.161 55.48C242.201 54.5733 240.721 54.12 238.721 54.12H233.361V64.68ZM270.537 72.8H258.377L256.137 79H252.297L262.377 51.28H266.577L276.617 79H272.777L270.537 72.8ZM269.497 69.84L264.457 55.76L259.417 69.84H269.497ZM279.65 65.04C279.65 62.32 280.263 59.88 281.49 57.72C282.716 55.5333 284.383 53.8267 286.49 52.6C288.623 51.3733 290.983 50.76 293.57 50.76C296.61 50.76 299.263 51.4933 301.53 52.96C303.796 54.4267 305.45 56.5067 306.49 59.2H302.13C301.356 57.52 300.236 56.2267 298.77 55.32C297.33 54.4133 295.596 53.96 293.57 53.96C291.623 53.96 289.876 54.4133 288.33 55.32C286.783 56.2267 285.57 57.52 284.69 59.2C283.81 60.8533 283.37 62.8 283.37 65.04C283.37 67.2533 283.81 69.2 284.69 70.88C285.57 72.5333 286.783 73.8133 288.33 74.72C289.876 75.6267 291.623 76.08 293.57 76.08C295.596 76.08 297.33 75.64 298.77 74.76C300.236 73.8533 301.356 72.56 302.13 70.88H306.49C305.45 73.5467 303.796 75.6133 301.53 77.08C299.263 78.52 296.61 79.24 293.57 79.24C290.983 79.24 288.623 78.64 286.49 77.44C284.383 76.2133 282.716 74.52 281.49 72.36C280.263 70.2 279.65 67.76 279.65 65.04ZM327.028 79L315.548 66.28V79H311.908V51.12H315.548V64.04L327.068 51.12H331.668L319.028 65.08L331.788 79H327.028Z" fill="#EFEFEF"/>
</svg>
