<svg width="232" height="209" viewBox="0 0 232 209" fill="none" xmlns="http://www.w3.org/2000/svg">
<g clip-path="url(#clip0_1_14)">
<path d="M149.932 123.569C147.119 123.048 144.314 122.481 141.494 122.014C127.891 119.765 114.287 117.538 100.681 115.309C90.0698 113.571 79.4573 111.844 68.8461 110.11C68.5926 110.069 68.3482 109.984 67.9859 109.892C71.0656 91.1082 74.135 72.383 77.1917 53.7309C77.5066 53.6656 77.6115 53.6106 77.705 53.6285C80.0589 54.0458 82.8966 53.8141 84.6246 55.0851C86.2912 56.3139 86.8237 59.0941 87.8272 61.2048C88.9472 63.5587 90.0621 65.9178 91.1334 68.296C91.5571 69.2381 92.0704 69.7782 93.2224 69.896C95.479 70.1251 97.7126 70.5987 100.289 71.025C97.9123 66.0291 95.6621 61.2982 93.2557 56.2384C95.264 56.5341 96.9984 56.9629 98.7418 57.0102C101.554 57.0858 103.03 58.4426 104.032 61.0243C105.395 64.5405 107.192 67.8877 108.771 71.3206C109.156 72.1616 109.628 72.6275 110.642 72.7466C112.947 73.0141 115.233 73.4698 117.855 73.9037C115.473 68.8963 113.219 64.1654 110.816 59.1158C112.755 59.4026 114.435 59.7955 116.131 59.871C118.911 59.9952 120.579 61.1357 121.595 63.8813C122.9 67.4141 124.753 70.7421 126.323 74.1776C126.74 75.0902 127.274 75.5229 128.335 75.6406C130.595 75.8902 132.829 76.351 135.418 76.7811C133.033 71.7635 130.785 67.0352 128.362 61.9408C131.502 62.4618 134.353 62.8957 137.179 63.4538C137.548 63.5267 137.862 64.2026 138.077 64.6582C140.042 68.7926 141.998 72.9322 143.914 77.0896C144.306 77.9395 144.778 78.3914 145.783 78.5078C148.095 78.7779 150.383 79.2246 152.982 79.6483C150.593 74.6307 148.342 69.8973 145.94 64.849C148.561 65.2534 150.897 65.6157 153.233 65.9766C153.28 65.8883 153.326 65.8 153.373 65.713C151.382 64.4957 149.391 63.2797 147.148 61.9088C148.841 61.137 150.316 60.4662 151.789 59.7942C154.792 58.4234 157.815 57.0947 160.786 55.6586C161.764 55.185 162.516 55.1965 163.41 55.8083C164.412 56.4957 165.517 57.0294 166.578 57.631C166.578 57.7373 166.578 57.8448 166.578 57.951C164.42 61.4851 162.253 65.0141 160.115 68.5622C159.908 68.9066 159.862 69.3622 159.795 69.7744C157.888 81.311 155.991 92.849 154.086 104.386C153.03 110.782 151.959 117.179 150.893 123.574C150.573 123.569 150.253 123.569 149.932 123.569ZM151.681 84.7197C127.547 80.7658 103.642 76.849 79.6621 72.9206C79.383 74.6819 79.1437 76.1834 78.8826 77.8243C102.922 81.7629 126.839 85.6835 150.866 89.6208C151.139 87.9798 151.389 86.4746 151.681 84.7197ZM146.321 117.227C146.572 115.868 146.748 114.715 147.007 113.58C147.222 112.633 146.89 112.245 145.944 112.095C139.9 111.138 133.861 110.142 127.821 109.152C114.427 106.962 101.033 104.77 87.639 102.578C83.5072 101.902 79.3728 101.229 75.1411 100.538C74.8736 102.228 74.6278 103.776 74.3654 105.434C98.409 109.376 122.292 113.289 146.321 117.227Z" fill="#041218"/>
<path d="M87.5046 26.0726C89.8419 22.1891 92.137 18.376 94.5139 14.4272C99.328 17.3174 104.05 20.1526 109.029 23.1427C108.169 23.551 107.54 23.8582 106.903 24.1501C103.035 25.9216 99.1539 27.6701 95.3024 29.4736C94.4525 29.873 93.7818 29.9254 92.951 29.3802C91.2218 28.2435 89.4144 27.2221 87.5046 26.0726Z" fill="#041218"/>
<path d="M131.881 52.7299C136.792 50.4899 141.389 48.3805 146.002 46.3107C146.391 46.1341 147.008 46.0266 147.333 46.2109C149.772 47.6061 152.165 49.0858 154.812 50.6819C150.575 52.6224 146.522 54.3312 142.616 56.328C140.571 57.3738 138.963 57.3802 137.128 55.9645C135.585 54.7779 133.806 53.8986 131.881 52.7299Z" fill="#041218"/>
<path d="M124.323 32.3395C119.301 34.6282 114.629 36.7747 109.933 38.8675C109.578 39.025 108.975 38.9392 108.62 38.7344C106.272 37.3814 103.963 35.9658 101.38 34.4131C103.305 33.5274 105.006 32.7427 106.708 31.9606C109.608 30.6307 112.5 29.2854 115.419 27.999C115.843 27.8122 116.506 27.7008 116.861 27.9018C119.265 29.2624 121.617 30.7139 124.323 32.3395Z" fill="#041218"/>
<path d="M139.57 41.5107C135.826 43.2208 132.152 44.5558 128.841 46.5078C125.679 48.3715 123.121 48.1488 120.413 45.8934C119.372 45.0256 118.084 44.4547 116.684 43.6138C117.455 43.2246 117.994 42.9315 118.551 42.6768C122.469 40.8861 126.405 39.1325 130.301 37.297C131.214 36.8682 131.894 36.8195 132.783 37.3994C134.918 38.792 137.14 40.0515 139.57 41.5107Z" fill="#041218"/>
<path d="M9.4 162C9.4 159.253 10.0133 156.8 11.24 154.64C12.4933 152.453 14.1867 150.76 16.32 149.56C18.48 148.333 20.8933 147.72 23.56 147.72C26.68 147.72 29.4133 148.52 31.76 150.12C34.1067 151.72 35.7467 153.933 36.68 156.76H30.24C29.6 155.427 28.6933 154.427 27.52 153.76C26.3733 153.093 25.04 152.76 23.52 152.76C21.8933 152.76 20.44 153.147 19.16 153.92C17.9067 154.667 16.92 155.733 16.2 157.12C15.5067 158.507 15.16 160.133 15.16 162C15.16 163.84 15.5067 165.467 16.2 166.88C16.92 168.267 17.9067 169.347 19.16 170.12C20.44 170.867 21.8933 171.24 23.52 171.24C25.04 171.24 26.3733 170.907 27.52 170.24C28.6933 169.547 29.6 168.533 30.24 167.2H36.68C35.7467 170.053 34.1067 172.28 31.76 173.88C29.44 175.453 26.7067 176.24 23.56 176.24C20.8933 176.24 18.48 175.64 16.32 174.44C14.1867 173.213 12.4933 171.52 11.24 169.36C10.0133 167.2 9.4 164.747 9.4 162ZM47.0631 148.08V176H41.4631V148.08H47.0631ZM76.4759 176H70.8759L58.1959 156.84V176H52.5959V148.04H58.1959L70.8759 167.24V148.04H76.4759V176ZM87.61 152.6V159.6H97.01V164.04H87.61V171.44H98.21V176H82.01V148.04H98.21V152.6H87.61Z" fill="#041218"/>
<path d="M119.24 148.12V151.08H111.64V176H108V151.08H100.36V148.12H119.24ZM138.401 176L131.761 164.6H127.361V176H123.721V148.12H132.721C134.827 148.12 136.601 148.48 138.041 149.2C139.507 149.92 140.601 150.893 141.321 152.12C142.041 153.347 142.401 154.747 142.401 156.32C142.401 158.24 141.841 159.933 140.721 161.4C139.627 162.867 137.974 163.84 135.761 164.32L142.761 176H138.401ZM127.361 161.68H132.721C134.694 161.68 136.174 161.2 137.161 160.24C138.147 159.253 138.641 157.947 138.641 156.32C138.641 154.667 138.147 153.387 137.161 152.48C136.201 151.573 134.721 151.12 132.721 151.12H127.361V161.68ZM164.537 169.8H152.377L150.137 176H146.297L156.377 148.28H160.577L170.617 176H166.777L164.537 169.8ZM163.497 166.84L158.457 152.76L153.417 166.84H163.497ZM173.65 162.04C173.65 159.32 174.263 156.88 175.49 154.72C176.716 152.533 178.383 150.827 180.49 149.6C182.623 148.373 184.983 147.76 187.57 147.76C190.61 147.76 193.263 148.493 195.53 149.96C197.796 151.427 199.45 153.507 200.49 156.2H196.13C195.356 154.52 194.236 153.227 192.77 152.32C191.33 151.413 189.596 150.96 187.57 150.96C185.623 150.96 183.876 151.413 182.33 152.32C180.783 153.227 179.57 154.52 178.69 156.2C177.81 157.853 177.37 159.8 177.37 162.04C177.37 164.253 177.81 166.2 178.69 167.88C179.57 169.533 180.783 170.813 182.33 171.72C183.876 172.627 185.623 173.08 187.57 173.08C189.596 173.08 191.33 172.64 192.77 171.76C194.236 170.853 195.356 169.56 196.13 167.88H200.49C199.45 170.547 197.796 172.613 195.53 174.08C193.263 175.52 190.61 176.24 187.57 176.24C184.983 176.24 182.623 175.64 180.49 174.44C178.383 173.213 176.716 171.52 175.49 169.36C174.263 167.2 173.65 164.76 173.65 162.04ZM221.028 176L209.548 163.28V176H205.908V148.12H209.548V161.04L221.068 148.12H225.668L213.028 162.08L225.788 176H221.028Z" fill="#041218"/>
</g>
<defs>
<clipPath id="clip0_1_14">
<rect width="232" height="209" fill="white"/>
</clipPath>
</defs>
</svg>
