<svg width="32" height="37" viewBox="0 0 32 37" fill="none" xmlns="http://www.w3.org/2000/svg">
<mask id="path-1-inside-1_73_196" fill="white">
<path fill-rule="evenodd" clip-rule="evenodd" d="M16.6214 35.2185L16.6062 35.2215L16.5159 35.2735L16.4905 35.2794L16.4727 35.2735L16.3825 35.22C16.3689 35.216 16.3588 35.219 16.352 35.2289L16.3469 35.2438L16.3253 35.88L16.3317 35.9097L16.3444 35.9291L16.4765 36.0391L16.4956 36.045L16.5108 36.0391L16.643 35.9291L16.6583 35.9053L16.6633 35.88L16.6417 35.2453C16.6384 35.2294 16.6316 35.2205 16.6214 35.2185ZM16.9569 35.0505L16.9391 35.0535L16.7053 35.1917L16.6926 35.2066L16.6888 35.223L16.7116 35.8622L16.718 35.88L16.7282 35.8919L16.9836 36.0287C16.9997 36.0336 17.012 36.0296 17.0205 36.0168L17.0255 35.996L16.9823 35.0832C16.9781 35.0644 16.9696 35.0535 16.9569 35.0505ZM16.0483 35.0535C16.0427 35.0495 16.036 35.0482 16.0296 35.0499C16.0232 35.0516 16.0176 35.056 16.0139 35.0624L16.0063 35.0832L15.9631 35.996C15.964 36.0138 15.9712 36.0257 15.9847 36.0316L16.0038 36.0287L16.2592 35.8904L16.2719 35.8785L16.2757 35.8622L16.2986 35.223L16.2948 35.2051L16.2821 35.1903L16.0483 35.0535Z"/>
</mask>
<path d="M16.6214 35.2185L16.8128 34.237L16.6214 34.1997L16.43 34.237L16.6214 35.2185ZM16.6062 35.2215L16.4147 34.24L16.2511 34.2719L16.1066 34.3552L16.6062 35.2215ZM16.5159 35.2735L16.7437 36.2472L16.8875 36.2136L17.0154 36.1398L16.5159 35.2735ZM16.4905 35.2794L16.1736 36.2279L16.4423 36.3177L16.7183 36.2532L16.4905 35.2794ZM16.4727 35.2735L15.9626 36.1336L16.0545 36.1881L16.1558 36.2219L16.4727 35.2735ZM16.3825 35.22L16.8926 34.3599L16.7842 34.2956L16.6632 34.2602L16.3825 35.22ZM16.352 35.2289L15.5266 34.6644L15.4498 34.7767L15.4058 34.9054L16.352 35.2289ZM16.3469 35.2438L15.4007 34.9202L15.3525 35.0611L15.3475 35.2098L16.3469 35.2438ZM16.3253 35.88L15.3259 35.8461L15.3217 35.9689L15.3474 36.089L16.3253 35.88ZM16.3317 35.9097L15.3537 36.1187L15.393 36.3023L15.4961 36.4592L16.3317 35.9097ZM16.3444 35.9291L15.5088 36.4785L15.5905 36.6026L15.7047 36.6977L16.3444 35.9291ZM16.4765 36.0391L15.8368 36.8077L15.9893 36.9346L16.1788 36.9937L16.4765 36.0391ZM16.4956 36.045L16.1978 36.9997L16.5324 37.104L16.8588 36.9767L16.4956 36.045ZM16.5108 36.0391L16.8741 36.9708L17.0256 36.9117L17.1505 36.8077L16.5108 36.0391ZM16.643 35.9291L17.2827 36.6977L17.4015 36.5989L17.4848 36.4688L16.643 35.9291ZM16.6583 35.9053L17.5001 36.445L17.6016 36.2868L17.6386 36.1025L16.6583 35.9053ZM16.6633 35.88L17.6437 36.0772L17.6667 35.9627L17.6628 35.846L16.6633 35.88ZM16.6417 35.2453L17.6412 35.2112L17.6382 35.1228L17.6197 35.0362L16.6417 35.2453ZM16.9569 35.0505L17.1847 34.0768L16.9897 34.0312L16.7922 34.0642L16.9569 35.0505ZM16.9391 35.0535L16.7744 34.0672L16.5906 34.0979L16.4302 34.1927L16.9391 35.0535ZM16.7053 35.1917L16.1964 34.3309L16.0532 34.4155L15.9452 34.5419L16.7053 35.1917ZM16.6926 35.2066L15.9325 34.5568L15.774 34.7421L15.7187 34.9796L16.6926 35.2066ZM16.6888 35.223L15.7149 34.9959L15.6846 35.1256L15.6894 35.2587L16.6888 35.223ZM16.7116 35.8622L15.7123 35.8979L15.7178 36.0523L15.7696 36.1978L16.7116 35.8622ZM16.718 35.88L15.776 36.2156L15.8379 36.3895L15.9579 36.5298L16.718 35.88ZM16.7282 35.8919L15.968 36.5417L16.0903 36.6847L16.2562 36.7735L16.7282 35.8919ZM16.9836 36.0287L16.5116 36.9103L16.5969 36.9559L16.6894 36.9844L16.9836 36.0287ZM17.0205 36.0168L17.856 36.5662L17.9509 36.4219L17.9919 36.254L17.0205 36.0168ZM17.0255 35.996L17.997 36.2332L18.0312 36.0929L18.0244 35.9487L17.0255 35.996ZM16.9823 35.0832L17.9812 35.0359L17.9771 34.9488L17.9579 34.8637L16.9823 35.0832ZM16.0483 35.0535L15.4699 35.8693L15.5056 35.8946L15.5434 35.9167L16.0483 35.0535ZM16.0139 35.0624L15.1454 34.5668L15.1038 34.6396L15.075 34.7184L16.0139 35.0624ZM16.0063 35.0832L15.0674 34.7392L15.0147 34.883L15.0074 35.0359L16.0063 35.0832ZM15.9631 35.996L14.9642 35.9487L14.962 35.996L14.9642 36.0434L15.9631 35.996ZM15.9847 36.0316L15.583 36.9474L15.8504 37.0647L16.1389 37.0197L15.9847 36.0316ZM16.0038 36.0287L16.1579 37.0167L16.3282 36.9901L16.4797 36.9081L16.0038 36.0287ZM16.2592 35.8904L16.7352 36.7699L16.8484 36.7086L16.9424 36.6206L16.2592 35.8904ZM16.2719 35.8785L16.9552 36.6087L17.1769 36.4013L17.2458 36.1055L16.2719 35.8785ZM16.2757 35.8622L17.2496 36.0892L17.2716 35.9948L17.2751 35.8979L16.2757 35.8622ZM16.2986 35.223L17.298 35.2587L17.3024 35.135L17.2765 35.0139L16.2986 35.223ZM16.2948 35.2051L17.2727 34.9961L17.2197 34.7481L17.0549 34.5553L16.2948 35.2051ZM16.2821 35.1903L17.0422 34.5404L16.9326 34.4122L16.7869 34.3271L16.2821 35.1903ZM16.43 34.237L16.4147 34.24L16.7976 36.203L16.8128 36.2L16.43 34.237ZM16.1066 34.3552L16.0164 34.4072L17.0154 36.1398L17.1057 36.0878L16.1066 34.3552ZM16.2881 34.2998L16.2627 34.3057L16.7183 36.2532L16.7437 36.2472L16.2881 34.2998ZM16.8075 34.331L16.7897 34.3251L16.1558 36.2219L16.1736 36.2279L16.8075 34.331ZM16.9828 34.4134L16.8926 34.3599L15.8724 36.0801L15.9626 36.1336L16.9828 34.4134ZM16.6632 34.2602C16.5328 34.2221 16.3241 34.1892 16.0841 34.2594C15.8278 34.3343 15.642 34.4956 15.5266 34.6644L17.1774 35.7934C17.0687 35.9523 16.8914 36.1071 16.6453 36.1791C16.4154 36.2463 16.2186 36.214 16.1018 36.1798L16.6632 34.2602ZM15.4058 34.9054L15.4007 34.9202L17.2931 35.5673L17.2982 35.5525L15.4058 34.9054ZM15.3475 35.2098L15.3259 35.8461L17.3247 35.9139L17.3463 35.2777L15.3475 35.2098ZM15.3474 36.089L15.3537 36.1187L17.3096 35.7007L17.3032 35.671L15.3474 36.089ZM15.4961 36.4592L15.5088 36.4785L17.1799 35.3796L17.1672 35.3603L15.4961 36.4592ZM15.7047 36.6977L15.8368 36.8077L17.1162 35.2704L16.9841 35.1604L15.7047 36.6977ZM16.1788 36.9937L16.1978 36.9997L16.7933 35.0904L16.7743 35.0844L16.1788 36.9937ZM16.8588 36.9767L16.8741 36.9708L16.1476 35.1074L16.1324 35.1133L16.8588 36.9767ZM17.1505 36.8077L17.2827 36.6977L16.0033 35.1604L15.8711 35.2704L17.1505 36.8077ZM17.4848 36.4688L17.5001 36.445L15.8164 35.3655L15.8012 35.3893L17.4848 36.4688ZM17.6386 36.1025L17.6437 36.0772L15.683 35.6828L15.6779 35.7081L17.6386 36.1025ZM17.6628 35.846L17.6412 35.2112L15.6423 35.2793L15.6639 35.914L17.6628 35.846ZM17.6197 35.0362C17.5859 34.8784 17.4174 34.3549 16.8128 34.237L16.4301 36.2C16.1737 36.15 15.97 36.0055 15.8379 35.8317C15.7217 35.6788 15.6802 35.5306 15.6638 35.4543L17.6197 35.0362ZM16.7922 34.0642L16.7744 34.0672L17.1038 36.0398L17.1216 36.0369L16.7922 34.0642ZM16.4302 34.1927L16.1964 34.3309L17.2142 36.0526L17.448 35.9143L16.4302 34.1927ZM15.9452 34.5419L15.9325 34.5568L17.4527 35.8564L17.4654 35.8416L15.9452 34.5419ZM15.7187 34.9796L15.7149 34.9959L17.6627 35.45L17.6665 35.4336L15.7187 34.9796ZM15.6894 35.2587L15.7123 35.8979L17.711 35.8264L17.6881 35.1872L15.6894 35.2587ZM15.7696 36.1978L15.776 36.2156L17.66 35.5444L17.6536 35.5266L15.7696 36.1978ZM15.9579 36.5298L15.968 36.5417L17.4883 35.2421L17.4781 35.2302L15.9579 36.5298ZM16.2562 36.7735L16.5116 36.9103L17.4556 35.1471L17.2002 35.0103L16.2562 36.7735ZM16.6894 36.9844C16.8342 37.029 17.0588 37.0628 17.3119 36.9811C17.575 36.8962 17.7518 36.7246 17.856 36.5662L16.1849 35.4673C16.2806 35.3218 16.4471 35.1586 16.6978 35.0777C16.9387 35 17.1491 35.0333 17.2778 35.0729L16.6894 36.9844ZM17.9919 36.254L17.997 36.2332L16.0541 35.7587L16.049 35.7795L17.9919 36.254ZM18.0244 35.9487L17.9812 35.0359L15.9834 35.1305L16.0267 36.0432L18.0244 35.9487ZM17.9579 34.8637C17.9151 34.6731 17.737 34.206 17.1847 34.0768L16.7291 36.0242C16.499 35.9704 16.3108 35.8387 16.1832 35.6746C16.0688 35.5273 16.0249 35.3833 16.0067 35.3027L17.9579 34.8637ZM16.6266 34.2377C16.391 34.0707 16.0824 34.0029 15.778 34.0821L16.2811 36.0177C15.9895 36.0935 15.6943 36.0283 15.4699 35.8693L16.6266 34.2377ZM15.778 34.0821C15.4807 34.1593 15.2665 34.3547 15.1454 34.5668L16.8825 35.5581C16.7687 35.7574 16.5657 35.9438 16.2811 36.0177L15.778 34.0821ZM15.075 34.7184L15.0674 34.7392L16.9453 35.4273L16.9529 35.4065L15.075 34.7184ZM15.0074 35.0359L14.9642 35.9487L16.962 36.0432L17.0052 35.1305L15.0074 35.0359ZM14.9642 36.0434C14.9704 36.1726 15.0028 36.353 15.1138 36.5362C15.2311 36.73 15.4006 36.8674 15.583 36.9474L16.3864 35.1159C16.5553 35.1899 16.7144 35.3184 16.8245 35.5003C16.9283 35.6716 16.9567 35.8372 16.962 35.9485L14.9642 36.0434ZM16.1389 37.0197L16.1579 37.0167L15.8496 35.0406L15.8305 35.0436L16.1389 37.0197ZM16.4797 36.9081L16.7352 36.7699L15.7832 35.0109L15.5278 35.1492L16.4797 36.9081ZM16.9424 36.6206L16.9552 36.6087L15.5887 35.1483L15.576 35.1602L16.9424 36.6206ZM17.2458 36.1055L17.2496 36.0892L15.3018 35.6351L15.298 35.6515L17.2458 36.1055ZM17.2751 35.8979L17.298 35.2587L15.2992 35.1872L15.2764 35.8264L17.2751 35.8979ZM17.2765 35.0139L17.2727 34.9961L15.3169 35.4142L15.3207 35.432L17.2765 35.0139ZM17.0549 34.5553L17.0422 34.5404L15.522 35.8401L15.5347 35.8549L17.0549 34.5553ZM16.7869 34.3271L16.5531 34.1903L15.5434 35.9167L15.7772 36.0535L16.7869 34.3271Z" fill="#9CA7E5" mask="url(#path-1-inside-1_73_196)"/>
<path d="M13.9602 3.61799C14.6973 3.61799 15.4217 3.70421 16.1194 3.8707C16.4497 3.94916 16.7399 4.17788 16.926 4.50656C17.1121 4.83524 17.179 5.23695 17.112 5.62331C17.0449 6.00968 16.8493 6.34905 16.5683 6.56678C16.2874 6.7845 15.9439 6.86274 15.6136 6.78429C14.013 6.40234 12.3514 6.58412 10.8391 7.30663C9.32674 8.02914 8.0315 9.25995 7.11712 10.8434C6.20274 12.4269 5.71029 14.292 5.70202 16.2028C5.69376 18.1136 6.17005 19.9844 7.07067 21.5786C7.9713 23.1729 9.25583 24.4189 10.7618 25.1593C12.2679 25.8997 13.9277 26.1011 15.5316 25.7382C17.1355 25.3752 18.6114 24.4641 19.7726 23.1201C20.9338 21.7761 21.7283 20.0595 22.0556 18.1874C22.0888 17.9961 22.1539 17.8143 22.2472 17.6524C22.3404 17.4905 22.4601 17.3517 22.5992 17.2439C22.7383 17.1361 22.8943 17.0614 23.0581 17.0241C23.2219 16.9868 23.3904 16.9876 23.5539 17.0264C23.7175 17.0653 23.8729 17.1414 24.0113 17.2505C24.1497 17.3596 24.2683 17.4995 24.3605 17.6623C24.4527 17.825 24.5165 18.0074 24.5484 18.199C24.5803 18.3906 24.5797 18.5877 24.5465 18.779C24.2369 20.5519 23.6055 22.2263 22.6948 23.689L22.4445 24.0755L27.0856 29.5043C27.316 29.7712 27.4504 30.131 27.4614 30.51C27.4724 30.889 27.3591 31.2586 27.1448 31.5432C26.9304 31.8277 26.6312 32.0057 26.3083 32.0406C25.9855 32.0755 25.6634 31.9648 25.4081 31.7311L25.2886 31.6062L20.6475 26.1775C19.2946 27.4246 17.7063 28.2752 16.0152 28.6583C14.3241 29.0415 12.5792 28.946 10.9261 28.3799C9.27294 27.8138 7.75951 26.7935 6.51205 25.4041C5.26459 24.0146 4.31927 22.2964 3.75498 20.3928C3.19068 18.4891 3.02376 16.4552 3.26815 14.4608C3.51254 12.4663 4.16114 10.5691 5.15985 8.92748C6.15857 7.28586 7.47842 5.94741 9.0093 5.02379C10.5402 4.10017 12.2377 3.61816 13.9602 3.61799ZM24.7625 2.13147C25.0003 2.13147 25.2332 2.20948 25.435 2.35664C25.6367 2.50379 25.7991 2.71419 25.9037 2.96392L25.9647 3.13785L26.13 3.69975C26.3043 4.29761 26.5853 4.84531 26.9542 5.3066C27.3232 5.76788 27.7717 6.13222 28.2701 6.37549L28.5052 6.47955L28.9856 6.67131C29.2235 6.76624 29.4319 6.94156 29.5846 7.17509C29.7374 7.40862 29.8274 7.68987 29.8435 7.98328C29.8595 8.27669 29.8008 8.56908 29.6748 8.82347C29.5488 9.07786 29.3611 9.28283 29.1355 9.41246L28.9856 9.48381L28.5052 9.67706C27.9941 9.88101 27.5258 10.2096 27.1315 10.6412C26.7371 11.0728 26.4256 11.5974 26.2176 12.1804L26.1287 12.4554L25.9647 13.0173C25.8834 13.2955 25.7334 13.5392 25.5337 13.7177C25.334 13.8961 25.0935 14.0013 24.8427 14.02C24.5919 14.0386 24.3419 13.9698 24.1245 13.8223C23.9071 13.6747 23.732 13.4551 23.6213 13.1912L23.5603 13.0173L23.3951 12.4554C23.2207 11.8575 22.9397 11.3098 22.5708 10.8485C22.2019 10.3872 21.7533 10.0229 21.2549 9.77963L21.0198 9.67557L20.5395 9.48381C20.3016 9.38888 20.0931 9.21356 19.9404 8.98003C19.7877 8.7465 19.6976 8.46525 19.6815 8.17184C19.6655 7.87843 19.7242 7.58604 19.8502 7.33165C19.9762 7.07726 20.1639 6.87229 20.3895 6.74266L20.5395 6.67131L21.0198 6.47806C21.531 6.27411 21.9992 5.94547 22.3936 5.51391C22.7879 5.08235 23.0994 4.55772 23.3074 3.97476L23.3963 3.69975L23.5603 3.13785C23.6459 2.84439 23.8078 2.58959 24.0234 2.40914C24.239 2.22868 24.4974 2.13159 24.7625 2.13147ZM24.7625 6.8824C24.4619 7.32493 24.1191 7.72591 23.7407 8.07756C24.1203 8.42937 24.4609 8.82776 24.7625 9.27272C25.0633 8.82875 25.4039 8.43036 25.7843 8.07756C25.4059 7.72591 25.0631 7.32493 24.7625 6.8824Z" fill="#9CA7E5"/>
<path d="M13.9602 3.61799C14.6973 3.61799 15.4217 3.70421 16.1194 3.8707C16.4497 3.94916 16.7399 4.17788 16.926 4.50656C17.1121 4.83524 17.179 5.23695 17.112 5.62331C17.0449 6.00968 16.8493 6.34905 16.5683 6.56678C16.2874 6.7845 15.9439 6.86274 15.6136 6.78429C14.013 6.40234 12.3514 6.58412 10.8391 7.30663C9.32674 8.02914 8.0315 9.25995 7.11712 10.8434C6.20274 12.4269 5.71029 14.292 5.70202 16.2028C5.69376 18.1136 6.17005 19.9844 7.07067 21.5786C7.9713 23.1729 9.25583 24.4189 10.7618 25.1593C12.2679 25.8997 13.9277 26.1011 15.5316 25.7382C17.1355 25.3752 18.6114 24.4641 19.7726 23.1201C20.9338 21.7761 21.7283 20.0595 22.0556 18.1874C22.0888 17.9961 22.1539 17.8143 22.2472 17.6524C22.3404 17.4905 22.4601 17.3517 22.5992 17.2439C22.7383 17.1361 22.8943 17.0614 23.0581 17.0241C23.2219 16.9868 23.3904 16.9876 23.5539 17.0264C23.7175 17.0653 23.8729 17.1414 24.0113 17.2505C24.1497 17.3596 24.2683 17.4995 24.3605 17.6623C24.4527 17.825 24.5165 18.0074 24.5484 18.199C24.5803 18.3906 24.5797 18.5877 24.5465 18.779C24.2369 20.5519 23.6055 22.2263 22.6948 23.689L22.4445 24.0755L27.0856 29.5043C27.316 29.7712 27.4504 30.131 27.4614 30.51C27.4724 30.889 27.3591 31.2586 27.1448 31.5432C26.9304 31.8277 26.6312 32.0057 26.3083 32.0406C25.9855 32.0755 25.6634 31.9648 25.4081 31.7311L25.2886 31.6062L20.6475 26.1775C19.2946 27.4246 17.7063 28.2752 16.0152 28.6583C14.3241 29.0415 12.5792 28.946 10.9261 28.3799C9.27294 27.8138 7.75951 26.7935 6.51205 25.4041C5.26459 24.0146 4.31927 22.2964 3.75498 20.3928C3.19068 18.4891 3.02376 16.4552 3.26815 14.4608C3.51254 12.4663 4.16114 10.5691 5.15985 8.92748C6.15857 7.28586 7.47842 5.94741 9.0093 5.02379C10.5402 4.10017 12.2377 3.61816 13.9602 3.61799ZM24.7625 2.13147C25.0003 2.13147 25.2332 2.20948 25.435 2.35664C25.6367 2.50379 25.7991 2.71419 25.9037 2.96392L25.9647 3.13785L26.13 3.69975C26.3043 4.29761 26.5853 4.84531 26.9542 5.3066C27.3232 5.76788 27.7717 6.13222 28.2701 6.37549L28.5052 6.47955L28.9856 6.67131C29.2235 6.76624 29.4319 6.94156 29.5846 7.17509C29.7374 7.40862 29.8274 7.68987 29.8435 7.98328C29.8595 8.27669 29.8008 8.56908 29.6748 8.82347C29.5488 9.07786 29.3611 9.28283 29.1355 9.41246L28.9856 9.48381L28.5052 9.67706C27.9941 9.88101 27.5258 10.2096 27.1315 10.6412C26.7371 11.0728 26.4256 11.5974 26.2176 12.1804L26.1287 12.4554L25.9647 13.0173C25.8834 13.2955 25.7334 13.5392 25.5337 13.7177C25.334 13.8961 25.0935 14.0013 24.8427 14.02C24.5919 14.0386 24.3419 13.9698 24.1245 13.8223C23.9071 13.6747 23.732 13.4551 23.6213 13.1912L23.5603 13.0173L23.3951 12.4554C23.2207 11.8575 22.9397 11.3098 22.5708 10.8485C22.2019 10.3872 21.7533 10.0229 21.2549 9.77963L21.0198 9.67557L20.5395 9.48381C20.3016 9.38888 20.0931 9.21356 19.9404 8.98003C19.7877 8.7465 19.6976 8.46525 19.6815 8.17184C19.6655 7.87843 19.7242 7.58604 19.8502 7.33165C19.9762 7.07726 20.1639 6.87229 20.3895 6.74266L20.5395 6.67131L21.0198 6.47806C21.531 6.27411 21.9992 5.94547 22.3936 5.51391C22.7879 5.08235 23.0994 4.55772 23.3074 3.97476L23.3963 3.69975L23.5603 3.13785C23.6459 2.84439 23.8078 2.58959 24.0234 2.40914C24.239 2.22868 24.4974 2.13159 24.7625 2.13147ZM24.7625 6.8824C24.4619 7.32493 24.1191 7.72591 23.7407 8.07756C24.1203 8.42937 24.4609 8.82776 24.7625 9.27272C25.0633 8.82875 25.4039 8.43036 25.7843 8.07756C25.4059 7.72591 25.0631 7.32493 24.7625 6.8824Z" stroke="#9CA7E5"/>
</svg>
