<svg width="83" height="113" viewBox="0 0 83 113" fill="none" xmlns="http://www.w3.org/2000/svg">
<path d="M11.7409 46.8355C11.7409 42.2226 12.652 37.6549 14.4221 33.3931C16.1922 29.1314 18.7867 25.259 22.0574 21.9972C25.3281 18.7354 29.2111 16.148 33.4845 14.3827C37.7579 12.6175 42.3381 11.7089 46.9636 11.7089C51.5891 11.7089 56.1694 12.6175 60.4428 14.3827C64.7162 16.148 68.5991 18.7354 71.8699 21.9972C75.1406 25.259 77.7351 29.1314 79.5052 33.3931C81.2753 37.6549 82.1864 42.2226 82.1864 46.8355C82.1864 56.1517 78.4754 65.0863 71.8699 71.6738C65.2643 78.2613 56.3053 81.9622 46.9636 81.9622C37.622 81.9622 28.6629 78.2613 22.0574 71.6738C15.4519 65.0863 11.7409 56.1517 11.7409 46.8355Z" fill="white"/>
<path d="M46.9636 54.6414C55.6094 54.6414 62.6182 47.6518 62.6182 39.0296C62.6182 30.4074 55.6094 23.4178 46.9636 23.4178C38.3179 23.4178 31.3091 30.4074 31.3091 39.0296C31.3091 47.6518 38.3179 54.6414 46.9636 54.6414Z" fill="#9CA7E5"/>
<path fill-rule="evenodd" clip-rule="evenodd" d="M71.3064 71.2134C71.5413 71.592 71.4669 72.0721 71.1499 72.3726C64.6178 78.5417 55.96 81.9744 46.9636 81.9622C37.9673 81.9744 29.3095 78.5417 22.7774 72.3726C22.6233 72.2258 22.5238 72.031 22.4954 71.8204C22.4669 71.6097 22.5112 71.3957 22.6208 71.2134C27.1685 63.6885 36.3616 58.5444 46.9636 58.5444C57.5657 58.5444 66.7549 63.6885 71.3064 71.2134Z" fill="#9CA7E5"/>
</svg>
